<svg width="111" height="200" viewBox="0 0 111 200" fill="none" xmlns="http://www.w3.org/2000/svg">
<path d="M26.699 6.46167L37.8473 0L61.4203 40.9896V25.6081H74.1921V46.9508L92.2652 36.2794L98.6511 47.5913L74.1921 62.0333V90.9175H61.4203V69.5746L43.3473 80.246L36.9614 68.9341L49.3207 61.6364H2.40204L2.40204 48.713H50.9977L26.699 6.46167Z" fill="white"/>
<path d="M5.97886 119.732H3.78478V125.055H0V111.233H8.41063C9.06885 111.233 9.67223 111.331 10.2207 111.527C10.7815 111.723 11.2629 112.004 11.6652 112.371C12.0674 112.739 12.3844 113.191 12.6159 113.73C12.8475 114.256 12.9633 114.862 12.9633 115.547C12.9633 116.612 12.6891 117.48 12.1406 118.153C11.592 118.826 10.8729 119.285 9.98306 119.53L13.457 125.055H9.21513L5.97886 119.732ZM3.78478 116.556H8.04495C8.47158 116.556 8.76412 116.489 8.92258 116.355C9.09323 116.208 9.17856 115.939 9.17856 115.547C9.17856 115.155 9.09323 114.868 8.92258 114.684C8.76412 114.501 8.47158 114.409 8.04495 114.409H3.78478V116.556Z" fill="white"/>
<path d="M28.9154 118.153C28.9154 119.206 28.763 120.16 28.4583 121.017C28.1658 121.861 27.733 122.583 27.1601 123.183C26.5994 123.782 25.9107 124.247 25.094 124.578C24.2774 124.896 23.351 125.055 22.3149 125.055H20.8705C19.81 125.055 18.8592 124.89 18.0181 124.56C17.1893 124.217 16.4823 123.746 15.8972 123.146C15.3243 122.534 14.8855 121.806 14.5808 120.962C14.276 120.105 14.1237 119.169 14.1237 118.153C14.1237 117.126 14.276 116.189 14.5808 115.345C14.8855 114.501 15.3243 113.773 15.8972 113.161C16.4823 112.549 17.1893 112.078 18.0181 111.747C18.8592 111.405 19.81 111.233 20.8705 111.233H22.3149C23.351 111.233 24.2774 111.399 25.094 111.729C25.9107 112.047 26.5994 112.506 27.1601 113.106C27.733 113.705 28.1658 114.433 28.4583 115.29C28.763 116.147 28.9154 117.101 28.9154 118.153ZM21.8944 121.88C22.967 121.88 23.7715 121.568 24.3078 120.943C24.8442 120.307 25.1123 119.377 25.1123 118.153C25.1123 115.657 24.0397 114.409 21.8944 114.409H21.1813C20.1452 114.409 19.3407 114.721 18.7678 115.345C18.2071 115.957 17.9267 116.893 17.9267 118.153C17.9267 119.414 18.2071 120.35 18.7678 120.962C19.3407 121.574 20.1452 121.88 21.1813 121.88H21.8944Z" fill="white"/>
<path d="M44.5155 120.319C44.162 121.8 43.4367 122.963 42.3397 123.807C41.2427 124.639 39.847 125.055 38.1527 125.055H36.7082C35.6478 125.055 34.697 124.89 33.8559 124.56C33.0271 124.217 32.3201 123.746 31.735 123.146C31.1621 122.534 30.7233 121.806 30.4185 120.962C30.1138 120.105 29.9614 119.169 29.9614 118.153C29.9614 117.126 30.1138 116.189 30.4185 115.345C30.7233 114.501 31.1621 113.773 31.735 113.161C32.3201 112.549 33.0271 112.078 33.8559 111.747C34.6848 111.405 35.6295 111.233 36.6899 111.233H38.1527C39.847 111.233 41.2366 111.649 42.3214 112.482C43.4063 113.301 44.1315 114.446 44.4972 115.914H40.5113C39.9872 114.911 39.0608 114.409 37.7321 114.409H37.0191C35.983 114.409 35.1785 114.721 34.6056 115.345C34.0449 115.957 33.7645 116.893 33.7645 118.153C33.7645 119.414 34.0449 120.35 34.6056 120.962C35.1785 121.574 35.983 121.88 37.0191 121.88H37.7321C39.0973 121.88 40.0298 121.36 40.5296 120.319H44.5155Z" fill="white"/>
<path d="M53.6473 116.832L59.1508 125.055H54.8907L51.2704 119.548L49.4055 121.714V125.055H45.6207V111.233H49.4055V116.997L54.3056 111.233H58.5292L53.6473 116.832Z" fill="white"/>
<path d="M82.8335 111.233V114.409H78.2442V125.055H74.4777V114.409H69.8701V111.233H82.8335Z" fill="white"/>
<path d="M93.0295 111.233H96.8143V125.055H93.0295V119.732H87.6357V125.055H83.851V111.233H87.6357V116.556H93.0295V111.233Z" fill="white"/>
<path d="M102.17 121.88H110.343V125.055H98.3853V111.233H109.996V114.409H102.17V116.556H109.228V119.732H102.17V121.88Z" fill="white"/>
<path d="M12.1406 138.259C12.5672 138.589 12.9024 138.993 13.1462 139.47C13.39 139.948 13.5119 140.504 13.5119 141.141C13.5119 141.777 13.4083 142.358 13.201 142.884C12.9938 143.411 12.6891 143.863 12.2868 144.243C11.8968 144.622 11.4153 144.916 10.8424 145.124C10.2817 145.32 9.64175 145.418 8.92258 145.418H0V131.596H8.41063C9.09323 131.596 9.71489 131.694 10.2756 131.889C10.8363 132.085 11.3178 132.367 11.72 132.734C12.1223 133.101 12.4331 133.554 12.6525 134.092C12.8841 134.618 12.9999 135.224 12.9999 135.909C12.9999 136.399 12.9207 136.839 12.7622 137.231C12.6159 137.623 12.4087 137.965 12.1406 138.259ZM3.78478 134.771V137.102H8.13637C8.48986 137.102 8.75803 137.011 8.94087 136.827C9.12371 136.644 9.21513 136.338 9.21513 135.909C9.21513 135.554 9.1359 135.279 8.97744 135.083C8.83116 134.875 8.58128 134.771 8.22779 134.771H3.78478ZM8.66661 142.242C9.0201 142.242 9.28826 142.156 9.4711 141.985C9.65394 141.814 9.74536 141.532 9.74536 141.141C9.74536 140.321 9.37968 139.911 8.64832 139.911H3.78478V142.242H8.66661Z" fill="white"/>
<path d="M29.1654 138.516C29.1654 139.568 29.013 140.523 28.7083 141.379C28.4157 142.224 27.983 142.946 27.4101 143.545C26.8494 144.145 26.1607 144.61 25.344 144.94C24.5273 145.258 23.601 145.418 22.5649 145.418H21.1204C20.06 145.418 19.1092 145.252 18.2681 144.922C17.4393 144.579 16.7323 144.108 16.1472 143.509C15.5743 142.897 15.1355 142.169 14.8307 141.324C14.526 140.468 14.3736 139.532 14.3736 138.516C14.3736 137.488 14.526 136.552 14.8307 135.707C15.1355 134.863 15.5743 134.135 16.1472 133.523C16.7323 132.911 17.4393 132.44 18.2681 132.11C19.1092 131.767 20.06 131.596 21.1204 131.596H22.5649C23.601 131.596 24.5273 131.761 25.344 132.091C26.1607 132.41 26.8494 132.868 27.4101 133.468C27.983 134.068 28.4157 134.796 28.7083 135.652C29.013 136.509 29.1654 137.463 29.1654 138.516ZM22.1443 142.242C23.217 142.242 24.0215 141.93 24.5578 141.306C25.0941 140.67 25.3623 139.74 25.3623 138.516C25.3623 136.019 24.2896 134.771 22.1443 134.771H21.4313C20.3952 134.771 19.5907 135.083 19.0178 135.707C18.4571 136.319 18.1767 137.255 18.1767 138.516C18.1767 139.776 18.4571 140.712 19.0178 141.324C19.5907 141.936 20.3952 142.242 21.4313 142.242H22.1443Z" fill="white"/>
<path d="M39.5864 131.596H43.3712V145.418H39.5864V140.094H34.1926V145.418H30.4078V131.596H34.1926V136.919H39.5864V131.596Z" fill="white"/>
<path d="M48.727 142.242H56.8999V145.418H44.9422V131.596H56.5525V134.771H48.727V136.919H55.7846V140.094H48.727V142.242Z" fill="white"/>
<path d="M75.8732 131.596V145.418H72.0884V138.039L68.7973 145.418H65.1771L61.9043 138.057V145.418H58.1195V131.596H62.8733L66.9872 141.343L71.0828 131.596H75.8732Z" fill="white"/>
<path d="M77.4391 131.596H81.2239V145.418H77.4391V131.596Z" fill="white"/>
<path d="M91.0819 131.596L96.5671 145.418H92.7275L91.8499 143.068H86.5841L85.7064 145.418H81.8851L87.352 131.596H91.0819ZM90.7345 140.076L89.217 136.038L87.7177 140.076H90.7345Z" fill="white"/>
<path d="M106.401 131.596H110.186V145.418H105.835L101.008 137.47V145.418H97.2229V131.596H101.575L106.401 139.58V131.596Z" fill="white"/>
<path d="M4.35302 153.908C4.21302 153.714 4.02302 153.558 3.78302 153.438C3.54302 153.311 3.27302 153.247 2.97302 153.247C2.81302 153.247 2.64968 153.271 2.48302 153.317C2.32302 153.357 2.17635 153.427 2.04302 153.527C1.90968 153.621 1.79968 153.741 1.71302 153.887C1.63302 154.027 1.59302 154.197 1.59302 154.397C1.59302 154.591 1.62968 154.754 1.70302 154.887C1.78302 155.014 1.88635 155.124 2.01302 155.217C2.14635 155.304 2.29968 155.381 2.47302 155.447C2.65302 155.507 2.84302 155.571 3.04302 155.637C3.28302 155.711 3.52635 155.794 3.77302 155.887C4.01968 155.981 4.24302 156.104 4.44302 156.257C4.64302 156.411 4.80635 156.604 4.93302 156.837C5.05968 157.064 5.12302 157.354 5.12302 157.707C5.12302 158.074 5.05302 158.394 4.91302 158.667C4.77968 158.934 4.59968 159.157 4.37302 159.337C4.14635 159.511 3.88302 159.641 3.58302 159.727C3.28968 159.814 2.98635 159.857 2.67302 159.857C2.22635 159.857 1.79302 159.771 1.37302 159.598C0.959684 159.424 0.616351 159.167 0.343018 158.827L1.11302 158.177C1.27968 158.424 1.50302 158.624 1.78302 158.777C2.06302 158.931 2.36635 159.007 2.69302 159.007C2.85968 159.007 3.02635 158.984 3.19302 158.938C3.35968 158.891 3.50968 158.817 3.64302 158.717C3.78302 158.617 3.89635 158.494 3.98302 158.348C4.06968 158.194 4.11302 158.011 4.11302 157.798C4.11302 157.584 4.06635 157.408 3.97302 157.268C3.88635 157.121 3.76635 156.997 3.61302 156.897C3.45968 156.797 3.27968 156.714 3.07302 156.647C2.87302 156.574 2.65968 156.501 2.43302 156.427C2.20635 156.361 1.98302 156.281 1.76302 156.188C1.54302 156.087 1.34635 155.964 1.17302 155.817C0.999684 155.664 0.859684 155.477 0.753018 155.257C0.646351 155.037 0.593018 154.764 0.593018 154.438C0.593018 154.084 0.663018 153.781 0.803018 153.527C0.949684 153.274 1.13635 153.064 1.36302 152.897C1.59635 152.731 1.85635 152.611 2.14302 152.537C2.43635 152.457 2.72968 152.417 3.02302 152.417C3.43635 152.417 3.82302 152.491 4.18302 152.637C4.54302 152.784 4.83302 152.981 5.05302 153.227L4.35302 153.908Z" fill="white"/>
<path d="M13.8164 159.677H12.8264V152.597H13.8164V159.677Z" fill="white"/>
<path d="M26.8312 158.257H26.8512V152.597H27.8412V159.677H26.5912L22.8512 153.897H22.8312V159.677H21.8412V152.597H23.1312L26.8312 158.257Z" fill="white"/>
<path d="M41.9358 158.577C41.6558 158.957 41.2925 159.267 40.8458 159.507C40.3992 159.741 39.8625 159.857 39.2358 159.857C38.6958 159.857 38.1958 159.767 37.7358 159.587C37.2825 159.401 36.8892 159.144 36.5558 158.817C36.2292 158.484 35.9725 158.091 35.7858 157.637C35.5992 157.177 35.5058 156.674 35.5058 156.128C35.5058 155.574 35.5992 155.071 35.7858 154.617C35.9792 154.157 36.2425 153.767 36.5758 153.447C36.9158 153.121 37.3158 152.868 37.7758 152.688C38.2358 152.508 38.7358 152.417 39.2758 152.417C39.5158 152.417 39.7592 152.441 40.0058 152.487C40.2525 152.534 40.4892 152.604 40.7158 152.697C40.9425 152.791 41.1492 152.908 41.3358 153.048C41.5225 153.181 41.6825 153.338 41.8158 153.518L41.0358 154.117C40.8625 153.877 40.6158 153.681 40.2958 153.527C39.9825 153.367 39.6425 153.287 39.2758 153.287C38.8625 153.287 38.4892 153.364 38.1558 153.518C37.8292 153.664 37.5492 153.868 37.3158 154.128C37.0825 154.388 36.9025 154.691 36.7758 155.037C36.6492 155.377 36.5858 155.741 36.5858 156.128C36.5858 156.528 36.6458 156.901 36.7658 157.247C36.8925 157.594 37.0692 157.898 37.2958 158.158C37.5292 158.411 37.8092 158.611 38.1358 158.757C38.4692 158.904 38.8392 158.977 39.2458 158.977C39.6458 158.977 40.0092 158.898 40.3358 158.738C40.6625 158.578 40.9325 158.344 41.1458 158.037L41.9358 158.577Z" fill="white"/>
<path d="M50.2359 158.798H53.9359V159.677H49.2459V152.597H53.7859V153.467H50.2359V155.587H53.5759V156.438H50.2359V158.798Z" fill="white"/>
<path d="M73.2818 159.677H72.3118V153.777L70.9718 154.897L70.4018 154.227L72.4118 152.597H73.2818V159.677Z" fill="white"/>
<path d="M85.389 156.817L85.379 156.807C85.279 156.867 85.1424 156.914 84.969 156.947C84.889 156.961 84.8057 156.974 84.719 156.987C84.639 156.994 84.5624 156.997 84.489 156.997C84.1757 156.997 83.8857 156.944 83.619 156.837C83.3524 156.724 83.119 156.571 82.919 156.378C82.719 156.178 82.5624 155.941 82.449 155.667C82.3357 155.394 82.279 155.097 82.279 154.777C82.279 154.424 82.339 154.104 82.459 153.817C82.5857 153.524 82.759 153.274 82.979 153.067C83.199 152.861 83.459 152.701 83.759 152.587C84.059 152.474 84.3824 152.417 84.729 152.417C85.0757 152.417 85.399 152.477 85.699 152.597C85.999 152.711 86.2557 152.871 86.469 153.077C86.689 153.284 86.859 153.531 86.979 153.817C87.1057 154.104 87.169 154.414 87.169 154.747C87.169 155.134 87.1057 155.484 86.979 155.798C86.8524 156.111 86.689 156.431 86.489 156.757L84.639 159.677H83.489L85.389 156.817ZM86.199 154.738C86.199 154.531 86.1624 154.338 86.089 154.158C86.0224 153.971 85.9224 153.811 85.789 153.677C85.6624 153.537 85.509 153.427 85.329 153.347C85.149 153.267 84.949 153.227 84.729 153.227C84.509 153.227 84.309 153.267 84.129 153.347C83.949 153.421 83.7924 153.524 83.659 153.658C83.5324 153.791 83.4324 153.951 83.359 154.137C83.2924 154.324 83.259 154.527 83.259 154.747C83.259 154.961 83.2924 155.157 83.359 155.337C83.4324 155.517 83.5324 155.674 83.659 155.807C83.7857 155.941 83.939 156.044 84.119 156.117C84.299 156.191 84.499 156.227 84.719 156.227C84.939 156.227 85.139 156.191 85.319 156.117C85.5057 156.044 85.6624 155.941 85.789 155.807C85.9224 155.674 86.0224 155.517 86.089 155.337C86.1624 155.157 86.199 154.958 86.199 154.738Z" fill="white"/>
<path d="M97.6363 156.817L97.6263 156.807C97.5263 156.867 97.3896 156.914 97.2163 156.947C97.1363 156.961 97.053 156.974 96.9663 156.987C96.8863 156.994 96.8096 156.997 96.7363 156.997C96.423 156.997 96.133 156.944 95.8663 156.837C95.5996 156.724 95.3663 156.571 95.1663 156.378C94.9663 156.178 94.8096 155.941 94.6963 155.667C94.583 155.394 94.5263 155.097 94.5263 154.777C94.5263 154.424 94.5863 154.104 94.7063 153.817C94.833 153.524 95.0063 153.274 95.2263 153.067C95.4463 152.861 95.7063 152.701 96.0063 152.587C96.3063 152.474 96.6296 152.417 96.9763 152.417C97.323 152.417 97.6463 152.477 97.9463 152.597C98.2463 152.711 98.503 152.871 98.7163 153.077C98.9363 153.284 99.1063 153.531 99.2263 153.817C99.353 154.104 99.4163 154.414 99.4163 154.747C99.4163 155.134 99.353 155.484 99.2263 155.798C99.0996 156.111 98.9363 156.431 98.7363 156.757L96.8863 159.677H95.7363L97.6363 156.817ZM98.4463 154.738C98.4463 154.531 98.4096 154.338 98.3363 154.158C98.2696 153.971 98.1696 153.811 98.0363 153.677C97.9096 153.537 97.7563 153.427 97.5763 153.347C97.3963 153.267 97.1963 153.227 96.9763 153.227C96.7563 153.227 96.5563 153.267 96.3763 153.347C96.1963 153.421 96.0396 153.524 95.9063 153.658C95.7796 153.791 95.6796 153.951 95.6063 154.137C95.5396 154.324 95.5063 154.527 95.5063 154.747C95.5063 154.961 95.5396 155.157 95.6063 155.337C95.6796 155.517 95.7796 155.674 95.9063 155.807C96.033 155.941 96.1863 156.044 96.3663 156.117C96.5463 156.191 96.7463 156.227 96.9663 156.227C97.1863 156.227 97.3863 156.191 97.5663 156.117C97.753 156.044 97.9096 155.941 98.0363 155.807C98.1696 155.674 98.2696 155.517 98.3363 155.337C98.4096 155.157 98.4463 154.958 98.4463 154.738Z" fill="white"/>
<path d="M110.024 159.677H109.054V153.777L107.714 154.897L107.144 154.227L109.154 152.597H110.024V159.677Z" fill="white"/>
<path fill-rule="evenodd" clip-rule="evenodd" d="M95 185H17V200H95V185ZM29.424 188.504H27.912V197H29.424V188.504ZM33.2918 188.504H31.2878V197H32.7998V190.484H32.8238L37.0238 197H38.9438V188.504H37.4318V194.816H37.4078L33.2918 188.504ZM47.3414 188.504H44.3894V197H45.9014V193.4H47.0054L48.9734 197H50.7974L48.5414 193.244C49.1734 193.156 49.6574 192.904 49.9934 192.488C50.3374 192.072 50.5094 191.556 50.5094 190.94C50.5094 190.46 50.4214 190.064 50.2454 189.752C50.0694 189.44 49.8334 189.192 49.5374 189.008C49.2414 188.824 48.9014 188.696 48.5174 188.624C48.1414 188.544 47.7494 188.504 47.3414 188.504ZM47.7254 192.08C47.5094 192.096 47.2934 192.104 47.0774 192.104H45.9014V189.8H47.2094C47.4014 189.8 47.5974 189.812 47.7974 189.836C48.0054 189.86 48.1934 189.912 48.3614 189.992C48.5294 190.064 48.6654 190.176 48.7694 190.328C48.8734 190.48 48.9254 190.68 48.9254 190.928C48.9254 191.208 48.8694 191.428 48.7574 191.588C48.6454 191.74 48.4974 191.856 48.3134 191.936C48.1374 192.008 47.9414 192.056 47.7254 192.08ZM57.576 188.504H51.948V197H57.792V195.632H53.46V193.328H57.36V191.96H53.46V189.872H57.576V188.504ZM63.3399 188.504H62.0319L58.3359 197H60.0279L60.7959 195.056H64.4799L65.2719 197H66.9999L63.3399 188.504ZM62.6439 190.304L63.9519 193.76H61.3119L62.6439 190.304ZM71.2921 188.504H67.9441V197H71.1121C71.6241 197 72.1441 196.916 72.6721 196.748C73.2081 196.572 73.6921 196.312 74.1241 195.968C74.5641 195.616 74.9201 195.176 75.1921 194.648C75.4721 194.112 75.6121 193.48 75.6121 192.752C75.6121 192.032 75.4921 191.408 75.2521 190.88C75.0121 190.344 74.6921 189.9 74.2921 189.548C73.8921 189.196 73.4321 188.936 72.9121 188.768C72.3921 188.592 71.8521 188.504 71.2921 188.504ZM71.9161 195.476C71.5001 195.58 71.0561 195.632 70.5841 195.632H69.4561V189.872H70.8361C71.3001 189.872 71.7241 189.928 72.1081 190.04C72.5001 190.144 72.8361 190.312 73.1161 190.544C73.4041 190.768 73.6281 191.064 73.7881 191.432C73.9481 191.8 74.0281 192.24 74.0281 192.752C74.0281 193.272 73.9361 193.716 73.7521 194.084C73.5761 194.444 73.3321 194.74 73.0201 194.972C72.7081 195.196 72.3401 195.364 71.9161 195.476ZM75.9336 188.504L79.1256 193.364V197H80.6376V193.364L83.8296 188.504H82.0296L79.9176 191.888L77.8296 188.504H75.9336ZM83.4162 195.5C83.2322 195.684 83.1402 195.904 83.1402 196.16C83.1402 196.288 83.1642 196.408 83.2122 196.52C83.2682 196.632 83.3402 196.728 83.4282 196.808C83.5162 196.888 83.6162 196.952 83.7282 197C83.8482 197.048 83.9722 197.072 84.1002 197.072C84.3642 197.072 84.5882 196.98 84.7722 196.796C84.9642 196.612 85.0602 196.392 85.0602 196.136C85.0602 195.88 84.9642 195.664 84.7722 195.488C84.5802 195.312 84.3562 195.224 84.1002 195.224C83.8362 195.224 83.6082 195.316 83.4162 195.5Z" fill="white"/>
</svg>
